<svg xmlns="http://www.w3.org/2000/svg" viewBox="0 0 836 396" role="img" aria-labelledby="title desc">
  <title id="title">LeetCode CC Frost profile stats</title>
  <desc id="desc">Dark LeetCode profile screenshot with contest rating, ranking, badge, solved problems and badges.</desc>
  <rect width="836" height="396" fill="#191919"/>

  <g transform="translate(8 6)">
    <rect width="828" height="199" rx="6" fill="#282828"/>
    <text x="16" y="29" fill="#c8d2e1" font-family="Inter, Arial, sans-serif" font-size="13">Contest Rating</text>
    <text x="16" y="59" fill="#fff" font-family="Inter, Arial, sans-serif" font-size="26">1,876</text>
    <path d="M124 24l25-3 17 12-2 25-21 10-22-12-6-22z" fill="#5da58d" opacity=".55"/>
    <path d="M127 27l27 27m-31-14l19 19m-8-31l26 25" stroke="#b7f8df" stroke-width="4" stroke-linecap="round"/>
    <text x="160" y="29" fill="#c8d2e1" font-family="Inter, Arial, sans-serif" font-size="13">Level</text>
    <text x="160" y="49" fill="#1f8fff" font-family="Inter, Arial, sans-serif" font-size="14">Knight</text>
    <text x="225" y="29" fill="#c8d2e1" font-family="Inter, Arial, sans-serif" font-size="13">Global Ranking</text>
    <text x="225" y="49" fill="#fff" font-family="Inter, Arial, sans-serif" font-size="12" font-weight="700">44,066</text>
    <text x="270" y="49" fill="#8b8b8b" font-family="Inter, Arial, sans-serif" font-size="12">/874,213</text>
    <text x="327" y="29" fill="#c8d2e1" font-family="Inter, Arial, sans-serif" font-size="13">Attended</text>
    <text x="327" y="49" fill="#fff" font-family="Inter, Arial, sans-serif" font-size="12" font-weight="700">22</text>

    <polyline points="30,128 63,132 97,134 118,130 133,131 151,124 193,123 222,124 237,127 269,124 285,121 306,113 328,103 350,92 373,89" fill="none" stroke="#f5a000" stroke-width="1.5"/>
    <circle cx="386" cy="89" r="3.5" fill="#e9e9e9"/>
    <rect x="334" y="80" width="40" height="22" rx="2" fill="#303a43" stroke="#59616c"/>
    <text x="340" y="95" fill="#d8e6f6" font-family="Inter, Arial, sans-serif" font-size="12">1,876</text>
    <text x="27" y="174" fill="#c8d2e1" font-family="Inter, Arial, sans-serif" font-size="14">2024</text>
    <text x="362" y="174" fill="#c8d2e1" font-family="Inter, Arial, sans-serif" font-size="14">2025</text>

    <line x1="417" y1="16" x2="417" y2="183" stroke="#424242"/>
    <text x="434" y="29" fill="#c8d2e1" font-family="Inter, Arial, sans-serif" font-size="13">Top</text>
    <text x="434" y="59" fill="#fff" font-family="Inter, Arial, sans-serif" font-size="26">5.19%</text>
    <g fill="#444">
      <rect x="439" y="179" width="14" height="7"/><rect x="456" y="179" width="14" height="7"/><rect x="473" y="179" width="14" height="7"/><rect x="490" y="179" width="14" height="7"/><rect x="507" y="160" width="14" height="26"/><rect x="524" y="103" width="14" height="83"/><rect x="541" y="120" width="14" height="66"/><rect x="558" y="138" width="14" height="48"/><rect x="575" y="152" width="14" height="34"/><rect x="592" y="159" width="14" height="27"/><rect x="609" y="166" width="14" height="20"/><rect x="626" y="172" width="14" height="14"/><rect x="643" y="176" width="14" height="10"/><rect x="660" y="179" width="14" height="7"/><rect x="694" y="179" width="14" height="7"/><rect x="711" y="179" width="14" height="7"/><rect x="728" y="179" width="14" height="7"/><rect x="745" y="179" width="14" height="7"/><rect x="762" y="179" width="14" height="7"/><rect x="779" y="179" width="14" height="7"/><rect x="796" y="179" width="14" height="7"/>
    </g>
    <rect x="677" y="179" width="14" height="7" fill="#ff9f0a"/>
  </g>

  <g transform="translate(8 222)">
    <rect width="410" height="180" rx="6" fill="#282828"/>
    <circle cx="156" cy="84" r="77" fill="none" stroke="#4e4e4e" stroke-width="5"/>
    <path d="M82 84a74 74 0 0 1 145-23" fill="none" stroke="#ffbf0a" stroke-width="5" stroke-linecap="round"/>
    <path d="M228 84a74 74 0 0 1-23 54" fill="none" stroke="#c83b3b" stroke-width="5" stroke-linecap="round"/>
    <path d="M72 83a74 74 0 0 0 33 61" fill="none" stroke="#28c6c9" stroke-width="5" stroke-linecap="round"/>
    <text x="113" y="91" fill="#b7b7b7" font-family="Inter, Arial, sans-serif" font-size="31" font-weight="700">511</text>
    <text x="167" y="90" fill="#929292" font-family="Inter, Arial, sans-serif" font-size="14" font-weight="700">/3949</text>
    <text x="118" y="112" fill="#31a24c" font-family="Inter, Arial, sans-serif" font-size="14">✓</text>
    <text x="137" y="112" fill="#a5a5a5" font-family="Inter, Arial, sans-serif" font-size="14">Solved</text>
    <text x="117" y="158" fill="#7f7f7f" font-family="Inter, Arial, sans-serif" font-size="13">11 Attempting</text>
    <g transform="translate(304 17)">
      <rect width="90" height="44" rx="5" fill="#333"/>
      <text x="33" y="17" fill="#20d5cf" font-family="Inter, Arial, sans-serif" font-size="12">Easy</text>
      <text x="23" y="34" fill="#fff" font-family="Inter, Arial, sans-serif" font-size="12" font-weight="700">185/947</text>
      <rect y="53" width="90" height="44" rx="5" fill="#333"/>
      <text x="29" y="70" fill="#ffd400" font-family="Inter, Arial, sans-serif" font-size="12">Med.</text>
      <text x="20" y="87" fill="#fff" font-family="Inter, Arial, sans-serif" font-size="12" font-weight="700">273/2063</text>
      <rect y="106" width="90" height="44" rx="5" fill="#333"/>
      <text x="31" y="123" fill="#ff3b30" font-family="Inter, Arial, sans-serif" font-size="12">Hard</text>
      <text x="26" y="140" fill="#fff" font-family="Inter, Arial, sans-serif" font-size="12" font-weight="700">53/939</text>
    </g>
  </g>

  <g transform="translate(434 222)">
    <rect width="410" height="180" rx="6" fill="#282828"/>
    <text x="16" y="29" fill="#c8d2e1" font-family="Inter, Arial, sans-serif" font-size="13">Badges</text>
    <text x="16" y="57" fill="#fff" font-family="Inter, Arial, sans-serif" font-size="26">6</text>
    <path d="M372 19l10 10-10 10m8-10h-23" fill="none" stroke="#a5a5a5" stroke-width="2" stroke-linecap="round" stroke-linejoin="round"/>
    <g transform="translate(92 61)">
      <path d="M5 20l28-11 31 7 10 35-28 18-35-12z" fill="#343434" stroke="#767676" stroke-width="2"/>
      <path d="M20 38a20 20 0 1 0 40 0 20 20 0 1 0-40 0" fill="#4ab5f0"/>
      <path d="M20 38a20 20 0 0 0 20 20" fill="none" stroke="#8fd8ff" stroke-width="5"/>
      <text x="30" y="15" fill="#ddd" font-family="Arial" font-size="7">10%</text>
    </g>
    <g transform="translate(174 49) scale(1.2)">
      <path d="M20 6l31 4 19 17-5 35-31 15-31-20-3-34z" fill="#5da58d" opacity=".65" stroke="#737373" stroke-width="2"/>
      <path d="M18 17l36 36m-42-18l27 27m-11-43l32 32" stroke="#b7f8df" stroke-width="5" stroke-linecap="round"/>
      <circle cx="56" cy="18" r="6" fill="#555" opacity=".6"/>
    </g>
    <g transform="translate(271 61)">
      <path d="M7 21l28-12 31 7 9 34-29 18-34-11z" fill="#343434" stroke="#767676" stroke-width="2"/>
      <path d="M38 31l31-11 2 33-34 13z" fill="#abe32b"/>
      <path d="M21 40a20 20 0 0 0 20 20" fill="none" stroke="#84b51d" stroke-width="5"/>
      <text x="47" y="16" fill="#ddd" font-family="Arial" font-size="7">30%</text>
    </g>
    <text x="16" y="141" fill="#c8d2e1" font-family="Inter, Arial, sans-serif" font-size="13">Most Recent Badge</text>
    <text x="16" y="163" fill="#fff" font-family="Inter, Arial, sans-serif" font-size="16">Knight</text>
  </g>
</svg>
